<?xml version="1.0" standalone="no"?><!DOCTYPE svg PUBLIC "-//W3C//DTD SVG 1.1//EN" "http://www.w3.org/Graphics/SVG/1.1/DTD/svg11.dtd"><svg t="1543568215118" class="icon" style="" viewBox="0 0 1024 1024" version="1.1" xmlns="http://www.w3.org/2000/svg" p-id="2037" xmlns:xlink="http://www.w3.org/1999/xlink" width="32" height="32"><defs><style type="text/css"></style></defs><path d="M498.63091 984.976711c-258.709951 0-469.724771-210.292167-469.72477-469.72477s210.292167-469.724771 469.72477-469.724771c68.652082 0 135.136203 14.45307 196.561751 43.35921 7.226535 3.613267 14.45307 6.503881 20.956951 10.117149 14.45307 7.226535 19.511644 24.570219 12.285109 39.023288-7.226535 14.45307-24.570219 19.511644-39.023288 12.28511-5.781228-2.890614-12.285109-6.503881-18.788991-9.394496-54.199012-25.292872-112.011291-37.577982-172.714185-37.577981-226.913197 0-411.912491 184.276641-411.912491 411.912491 0 226.913197 184.276641 411.912491 411.912491 411.912491s411.912491-184.276641 411.912491-411.912491c0-7.226535 0-14.45307-0.722653-21.679605-0.722653-15.898377 11.562456-29.628793 27.460832-30.351447 15.898377-0.722653 29.628793 11.562456 30.351447 27.460833 0.722653 7.949188 0.722653 16.62103 0.722654 24.570219 0 259.432604-210.292167 469.724771-469.002118 469.72477z" p-id="2038" fill="#2c2c2c"></path><path d="M918.49259 380.115737m-31.0741 0a31.0741 31.0741 0 1 0 62.1482 0 31.0741 31.0741 0 1 0-62.1482 0Z" p-id="2039" fill="#2c2c2c"></path><path d="M872.242766 278.944248m-31.0741 0a31.0741 31.0741 0 1 0 62.148201 0 31.0741 31.0741 0 1 0-62.148201 0Z" p-id="2040" fill="#2c2c2c"></path><path d="M797.086803 191.503176m-31.0741 0a31.0741 31.0741 0 1 0 62.1482 0 31.0741 31.0741 0 1 0-62.1482 0Z" p-id="2041" fill="#2c2c2c"></path><path d="M755.895554 487.068454h-223.299929v-223.299929c0-15.898377-13.007763-28.90614-28.90614-28.90614s-28.90614 13.007763-28.90614 28.90614v223.299929h-223.299929c-15.898377 0-28.90614 13.007763-28.90614 28.90614s13.007763 28.90614 28.90614 28.90614h223.299929v223.299929c0 15.898377 13.007763 28.90614 28.90614 28.90614s28.90614-13.007763 28.90614-28.90614v-223.299929h223.299929c15.898377 0 28.90614-13.007763 28.90614-28.90614 0-16.62103-13.007763-28.90614-28.90614-28.90614z" p-id="2042" fill="#2c2c2c"></path></svg>