<?xml version="1.0" standalone="no"?><!DOCTYPE svg PUBLIC "-//W3C//DTD SVG 1.1//EN" "http://www.w3.org/Graphics/SVG/1.1/DTD/svg11.dtd"><svg t="1543993395990" class="icon" style="" viewBox="0 0 1024 1024" version="1.1" xmlns="http://www.w3.org/2000/svg" p-id="2041" xmlns:xlink="http://www.w3.org/1999/xlink" width="32" height="32"><defs><style type="text/css"></style></defs><path d="M780.465773 627.985886c-15.898377-12.285109-31.796754-23.124912-49.140438-33.242061-33.964714-19.511644-70.097389-33.964714-108.398024-44.081863C695.192661 513.08398 744.333098 437.205363 744.333098 350.486944c0-125.019054-101.894143-226.913197-226.913197-226.913197s-226.913197 101.171489-226.913197 226.913197c0 86.718419 49.140438 162.597036 121.405787 200.897671-156.093155 39.745942-281.834862 165.48765-315.799576 327.362033-2.890614 13.730416 5.781228 26.738179 19.511644 29.628793 1.445307 0.722653 3.613267 0.722653 5.058574 0.722654 11.562456 0 22.402258-7.949188 24.570219-20.234298 36.855328-174.159492 192.948483-301.346507 371.443896-301.346507 66.484121 0 131.522936 17.343684 189.335215 50.585745 15.175723 8.671842 29.628793 18.788991 43.35921 28.906139 10.839802 8.671842 26.738179 6.503881 35.410021-4.335921 8.671842-10.117149 7.226535-26.015526-4.335921-34.687367zM341.092449 350.486944c0-97.558222 79.491884-176.327452 176.327452-176.327452S693.747354 252.928723 693.747354 350.486944 614.255469 526.814397 517.419901 526.814397s-176.327452-79.491884-176.327452-176.327453z" fill="" p-id="2042"></path><path d="M831.774171 714.704305m-27.460833 0a27.460833 27.460833 0 1 0 54.921666 0 27.460833 27.460833 0 1 0-54.921666 0Z" fill="" p-id="2043"></path><path d="M883.082569 793.473536m-27.460833 0a27.460833 27.460833 0 1 0 54.921666 0 27.460833 27.460833 0 1 0-54.921666 0Z" fill="" p-id="2044"></path><path d="M910.543402 880.914608m-27.460833 0a27.460833 27.460833 0 1 0 54.921665 0 27.460833 27.460833 0 1 0-54.921665 0Z" fill="" p-id="2045"></path></svg>