<?xml version="1.0" standalone="no"?><!DOCTYPE svg PUBLIC "-//W3C//DTD SVG 1.1//EN" "http://www.w3.org/Graphics/SVG/1.1/DTD/svg11.dtd"><svg t="1543569389371" class="icon" style="" viewBox="0 0 1024 1024" version="1.1" xmlns="http://www.w3.org/2000/svg" p-id="5527" xmlns:xlink="http://www.w3.org/1999/xlink" width="16" height="16"><defs><style type="text/css"></style></defs><path d="M514.180666 371.521548c-72.635297 0-131.523499 58.887178-131.523499 131.523499s58.887178 131.523499 131.523499 131.523499 131.523499-58.887178 131.523499-131.523499S586.815963 371.521548 514.180666 371.521548M514.180666 582.979588c-44.154639 0-79.93454-35.779901-79.93454-79.93454s35.779901-79.93454 79.93454-79.93454 79.93454 35.779901 79.93454 79.93454S558.335305 582.979588 514.180666 582.979588" p-id="5528"></path><path d="M514.199085 256.57254c-248.715595 0-450.322266 166.54206-450.322266 246.476601 0 76.934207 202.636117 246.476601 451.307709 246.476601 62.246693 0 115.446335-11.19497 174.378539-28.39163l5.239328-1.25355c2.329045-0.76134 47.064922-15.09172 90.951455-10.165524 13.658068 1.52268 26.107611-6.762007 28.122501-21.942755 1.925862-14.867616-4.209882-27.317159-12.986779-29.017894-32.779567-6.448876-60.947094 2.373047-71.694879 4.881171l-1.925862 0.448208c-89.562828 23.957645-136.672776 40.61707-203.039299 40.61707-199.99394 0-410.287457-154.137543-410.287457-201.650673 0-43.527352 202.77017-201.650673 402.76411-201.650673s399.047462 153.913439 399.047462 201.650673c0 18.763342-26.734898 54.499242-82.039481 90.906429 0 0-10.43363 15.046694-2.597151 29.197996 7.568373 13.524015 21.763676 11.419074 21.763676 11.419074 79.129198-44.109614 106.714464-96.235808 106.714464-131.523499C959.595154 430.100712 762.91468 256.57254 514.199085 256.57254" p-id="5529"></path></svg>