<?xml version="1.0" standalone="no"?><!DOCTYPE svg PUBLIC "-//W3C//DTD SVG 1.1//EN" "http://www.w3.org/Graphics/SVG/1.1/DTD/svg11.dtd"><svg t="1543993500314" class="icon" style="" viewBox="0 0 1024 1024" version="1.1" xmlns="http://www.w3.org/2000/svg" p-id="2276" xmlns:xlink="http://www.w3.org/1999/xlink" width="32" height="32"><defs><style type="text/css"></style></defs><path d="M495.017643 967.633028c-249.315455 0-452.381087-203.065632-452.381087-452.381087s203.065632-452.381087 452.381087-452.381087c66.484121 0 130.077629 13.730416 189.335215 41.191249 7.226535 2.890614 13.730416 6.503881 20.234298 10.117149 13.730416 7.226535 18.788991 23.847565 11.562456 37.577982-7.226535 13.730416-23.847565 18.788991-37.577982 11.562455-5.781228-2.890614-11.562456-5.781228-18.066337-8.671841-52.031052-23.847565-108.398024-36.132675-166.210304-36.132675-218.964008 0-396.736768 177.772759-396.736767 396.736768 0 218.964008 177.772759 396.736768 396.736767 396.736768s396.736768-177.772759 396.736768-396.736768c0-7.226535 0-13.730416-0.722653-20.956952-0.722653-15.175723 10.839802-28.183486 26.738179-29.628793 15.175723-0.722653 28.183486 10.839802 29.628793 26.738179 0.722653 7.949188 0.722653 15.898377 0.722654 23.847566 0.722653 249.315455-202.342978 452.381087-452.381087 452.381087z" p-id="2277"></path><path d="M900.426253 384.451658m-29.628794 0a29.628793 29.628793 0 1 0 59.257587 0 29.628793 29.628793 0 1 0-59.257587 0Z" p-id="2278"></path><path d="M855.621736 286.893437m-29.628793 0a29.628793 29.628793 0 1 0 59.257586 0 29.628793 29.628793 0 1 0-59.257586 0Z" p-id="2279"></path><path d="M783.356387 202.342978m-29.628793 0a29.628793 29.628793 0 1 0 59.257586 0 29.628793 29.628793 0 1 0-59.257586 0Z" p-id="2280"></path><path d="M494.294989 711.813691c-14.45307 0-26.738179-12.285109-26.738179-26.738179v-100.448836c0-71.542696 50.585745-96.112915 91.05434-116.347212 45.52717-22.402258 80.214538-39.745942 72.26535-113.456599-7.226535-69.374735-85.273112-80.214538-130.800283-80.214538h-5.058574c-56.366972 1.445307-106.230064 34.687368-127.187015 83.827806-4.335921 10.117149-13.730416 16.62103-24.570219 16.62103-3.613267 0-7.226535-0.722653-10.117149-2.16796-6.503881-2.890614-11.562456-7.949188-14.453069-14.45307-2.890614-6.503881-2.890614-13.730416 0-20.234298 28.90614-69.374735 98.280875-115.624559 175.604798-117.069866h5.781228c105.50741 0 176.327452 49.140438 184.999295 127.909668 12.285109 110.565984-53.476359 143.085392-101.894143 166.932957-41.191249 20.234298-61.425547 31.796754-61.425547 67.929429v100.448835c-0.722653 15.175723-13.007763 27.460833-27.460833 27.460833zM497.908257 807.926606c-15.898377 0-29.628793-13.007763-29.628793-29.628794s13.007763-29.628793 29.628793-29.628793c15.898377 0 29.628793 13.007763 29.628793 29.628793s-13.730416 29.628793-29.628793 29.628794z" p-id="2281"></path></svg>