<?xml version="1.0" standalone="no"?><!DOCTYPE svg PUBLIC "-//W3C//DTD SVG 1.1//EN" "http://www.w3.org/Graphics/SVG/1.1/DTD/svg11.dtd"><svg t="1543570464663" class="icon" style="" viewBox="0 0 1024 1024" version="1.1" xmlns="http://www.w3.org/2000/svg" p-id="8953" xmlns:xlink="http://www.w3.org/1999/xlink" width="24" height="24"><defs><style type="text/css"></style></defs><path d="M577.400141 804.313338m-28.183486 0a3.9 3.9 0 1 0 56.366972 0 3.9 3.9 0 1 0-56.366972 0Z" p-id="8954" fill="#2c2c2c"></path><path d="M578.122795 915.601976m-28.183486 0a3.9 3.9 0 1 0 56.366972 0 3.9 3.9 0 1 0-56.366972 0Z" p-id="8955" fill="#2c2c2c"></path><path d="M691.579393 919.215243m-28.183486 0a3.9 3.9 0 1 0 56.366972 0 3.9 3.9 0 1 0-56.366972 0Z" p-id="8956" fill="#2c2c2c"></path><path d="M845.504587 377.947777c0 0-0.722653-0.722653-0.722653-0.722653L576.677488 101.894143c-18.066337-18.066337-42.636556-27.460833-67.929428-26.015526-0.722653 0-1.445307 0-2.16796 0-0.722653 0-1.445307 0-2.16796 0-25.292872-1.445307-49.863091 8.671842-67.929428 26.738179L169.100917 377.225124c0 0-0.722653 0.722653-0.722653 0.722653-27.460833 31.0741-28.183486 74.43331-28.183486 79.491884l0 403.963303c0 44.804517 36.132675 81.659845 81.659845 81.659845l218.964008 0c13.730416 0 25.292872-11.562456 25.292872-25.292872L466.111503 704.587156l39.023289 0c0.722653 0 1.445307 0 2.16796 0 0.722653 0 1.445307 0 2.16796 0l41.913903 0c13.730416 0 25.292872-11.562456 25.292872-25.292872s-11.562456-25.292872-25.292872-25.292872l-41.913903 0c-0.722653 0-1.445307 0-2.16796 0-0.722653 0-1.445307 0-2.16796 0L462.498236 654.001411c-26.015526 0-46.972477 20.956951-46.972477 46.972477l0 190.780522L221.131969 891.754411c-16.62103 0-31.0741-13.730416-31.0741-31.0741L190.057869 457.439661c0 0 0.722653-28.183486 15.175723-45.52717l267.381793-274.608327c7.949188-7.949188 18.066337-12.285109 29.628793-11.562456 1.445307 0 2.890614 0 4.335921 0 1.445307 0 2.890614 0 4.335921 0 10.839802-0.722653 21.679605 3.613267 28.90614 11.562456l267.381793 274.608327c12.285109 14.45307 15.175723 37.577982 15.175723 45.52717l0 403.963303c0 16.62103-13.730416 31.0741-31.0741 31.0741-13.730416 0-25.292872 11.562456-25.292872 25.292872s11.562456 25.292872 25.292872 25.292872c44.804517 0 81.659845-36.855328 81.659845-81.659845L872.96542 457.439661C873.688073 452.381087 872.96542 409.021877 845.504587 377.947777z" p-id="8957" fill="#2c2c2c"></path></svg>