<?xml version="1.0" standalone="no"?><!DOCTYPE svg PUBLIC "-//W3C//DTD SVG 1.1//EN" "http://www.w3.org/Graphics/SVG/1.1/DTD/svg11.dtd"><svg t="1543994038400" class="icon" style="" viewBox="0 0 1024 1024" version="1.1" xmlns="http://www.w3.org/2000/svg" p-id="6733" xmlns:xlink="http://www.w3.org/1999/xlink" width="32" height="32"><defs><style type="text/css"></style></defs><path d="M503.01952 120.27392H556.032v354.90816h-53.01248z" fill="#9F9FA0" p-id="6734"></path><path d="M302.784 281.34144c-99.712 68.42368-165.9776 180.79744-165.9776 308.75392 0 105.09312 44.16 200.36352 115.29472 268.95616 71.09376 68.5952 169.28256 110.85312 277.38368 110.85312 108.18304 0 206.33088-42.25792 277.4656-110.85312 71.04768-68.59264 115.25376-163.86304 115.25376-268.95616 0-123.6352-61.98784-232.70656-156.11392-301.47072l-27.60448 37.76768c83.15904 60.80512 137.01632 155.98592 137.01632 263.70304-0.08448 91.79648-38.53312 174.78656-101.15584 235.25376-62.53824 60.29312-148.95872 97.80736-244.85888 97.80736-95.86176 0-182.36672-37.51424-244.86144-97.80736-62.58176-60.46464-100.94336-143.45472-100.94336-235.25376 0-111.5264 57.41568-209.42336 145.52832-270.13888l-26.42688-38.61504z" fill="#9F9FA0" p-id="6735"></path></svg>