<?xml version="1.0" standalone="no"?><!DOCTYPE svg PUBLIC "-//W3C//DTD SVG 1.1//EN" "http://www.w3.org/Graphics/SVG/1.1/DTD/svg11.dtd"><svg t="1543573520693" class="icon" style="" viewBox="0 0 1024 1024" version="1.1" xmlns="http://www.w3.org/2000/svg" p-id="24447" xmlns:xlink="http://www.w3.org/1999/xlink" width="24" height="24"><defs><style type="text/css"></style></defs><path d="M538.411475 862.805333c-8.051071 0-15.887515-1.692444-23.301172-5.505293-23.726545-11.439838-38.553859-38.976646-38.553859-71.813171v-118.838303h-25.84307c-16.098263 0-31.985778 0.848162-47.238465 2.543192-4.024889 0.421495-7.83903 1.269657-11.862626 1.90707l-15.676768 2.752647c-5.719919 1.060202-11.438545 1.907071-17.158464 3.179313-3.600808 0.845576-7.202909 2.116525-10.803718 3.176727l-12.497454 3.812849c-6.144 1.907071-12.286707 3.600808-18.430707 5.931959-2.964687 1.057616-5.718626 2.540606-8.684606 3.812849l-6.354748 2.964687c-8.261818 3.600808-16.311596 7.201616-24.149333 11.439838-1.907071 1.057616-3.600808 2.119111-5.507879 3.388768l-5.930667 3.812848c-8.475152 5.295838-16.946424 10.378343-24.786747 16.522344l-7.624404 6.565495c-8.684606 7.204202-17.370505 14.407111-27.962182 25.633616-19.700364 20.75798-37.070869 44.696566-52.110222 71.386505-15.252687 24.785455-32.835232 26.692525-40.460929 25.421575-14.829899-1.060202-30.505374-13.345616-30.505374-37.91903 2.541899-197.004929 161.206303-439.554586 369.437737-468.998464a219.362263 219.362263 0 0 1 23.725253-2.541899v-110.365738c0-50.204444 24.574707-72.870788 46.816969-77.319757 2.96598-0.634828 5.507879-0.634828 7.200324-0.634829h1.060202c2.329859-0.21204 6.142707-0.424081 10.379636 0.212041 12.497455 1.693737 24.996202 7.625697 37.070869 17.370505L906.154182 444.224646c3.17802 2.541899 5.507879 5.083798 7.62699 7.837738 3.175434 3.176727 6.353455 6.566788 9.108687 10.167596 2.753939 3.388768 4.871758 6.778828 6.777535 10.167596 2.96598 5.083798 5.085091 10.168889 6.990869 15.675475l2.117818 6.35604c0.846869 2.964687 1.270949 5.930667 1.48299 8.896646l0.634828 5.930667c0.21204 3.17802 0.21204 6.357333 0 10.591677l-0.634828 5.719919-1.058909 7.625697c-0.846869 3.600808-2.119111 6.989576-4.23693 12.073374-1.269657 3.179313-2.541899 6.35604-4.023596 9.108687-2.543192 5.086384-5.719919 9.956848-10.168889 15.464727-3.600808 4.66101-8.048485 10.380929-14.616565 15.464727L580.988929 846.285576c-13.557657 11.014465-28.38497 16.519758-42.577454 16.519757z m347.194182-323.891717c1.48299-1.907071 2.967273-4.44897 5.721212-9.956848l2.117818-5.295839 0.424081-5.295838 0.21204-5.507879-0.424081-4.87305-1.48299-5.083798a50.889697 50.889697 0 0 0-3.17802-6.990869c-1.057616-1.905778-2.117818-3.600808-3.388768-5.083798-1.269657-1.905778-3.176727-3.600808-4.659717-5.083798L548.789818 217.350465c-6.988283-5.719919-11.862626-6.990869-16.52105-7.41495-3.390061 0.636121-9.532768 10.591677-9.532768 31.352243v156.75604h-29.021091c-11.862626 0-23.514505 0.848162-35.163798 2.541899-156.969374 22.031515-303.133737 196.792889-326.012121 379.394586 11.863919-17.369212 24.785455-33.470061 38.765899-48.085334l3.176727-3.600808c9.320727-9.532768 19.277576-18.005333 31.77503-28.386262 2.119111-1.907071 4.235636-3.812848 6.354748-5.295839 9.108687-6.989576 18.853495-13.133576 29.019798-19.274989l4.44897-2.755233c2.753939-1.907071 5.507879-3.600808 8.473858-5.295838 8.897939-4.871758 18.430707-9.108687 27.962182-13.345616l5.507879-2.543192c4.023596-1.69503 7.837737-3.600808 11.862626-5.083798 7.202909-2.752646 14.616566-5.083798 22.031515-7.201616l11.650586-3.600809c4.871758-1.481697 9.532768-2.967273 14.404525-4.024888 6.566788-1.69503 13.557657-2.755232 20.336485-3.812849l14.404525-2.540606c5.085091-0.848162 10.167596-1.697616 15.463435-2.331151 16.946424-1.907071 34.316929-2.967273 52.324848-2.967273h72.870788V785.700202c0 15.464727 5.930667 26.692525 11.862626 29.443879 5.295838 2.331152 12.497455-2.331152 16.309011-5.505293l325.377292-260.980364c2.331152-1.69503 4.447677-4.44897 7.625697-8.475151l1.057617-1.269657z" p-id="24448"></path></svg>