<?xml version="1.0" standalone="no"?><!DOCTYPE svg PUBLIC "-//W3C//DTD SVG 1.1//EN" "http://www.w3.org/Graphics/SVG/1.1/DTD/svg11.dtd"><svg t="1543568490393" class="icon" style="" viewBox="0 0 1024 1024" version="1.1" xmlns="http://www.w3.org/2000/svg" p-id="3235" xmlns:xlink="http://www.w3.org/1999/xlink" width="32" height="32"><defs><style type="text/css"></style></defs><path d="M849.117855 165.48765H635.212421v-23.847565c0-21.679605-17.343684-39.023289-39.023289-39.023289H447.322512c-21.679605 0-39.023289 17.343684-39.023288 39.023289v23.847565h-231.249118c-13.730416 0-25.292872 11.562456-25.292872 25.292872s11.562456 25.292872 25.292872 25.292872h8.671842l32.519407 633.767114c0.722653 44.804517 36.855328 80.937191 81.659845 80.937191h435.037403c44.804517 0 80.937191-36.132675 81.659844-80.937191l23.124912-633.04446h9.394496c13.730416 0 25.292872-11.562456 25.292872-25.292872s-11.562456-26.015526-25.292872-26.015526z m-390.232887-12.285109h125.741708v12.285109H458.884968v-12.285109z m307.127735 695.19266v0.722654c0 17.343684-13.730416 31.0741-31.0741 31.0741H299.9012c-17.343684 0-31.0741-13.730416-31.0741-31.0741v-1.445307l-32.519408-631.599154h552.829923l-23.124912 632.321807z" fill="" p-id="3236"></path><path d="M522.478476 643.884263m-27.460833 0a27.460833 27.460833 0 1 0 54.921665 0 27.460833 27.460833 0 1 0-54.921665 0Z" fill="" p-id="3237"></path><path d="M522.478476 547.771348m-27.460833 0a27.460833 27.460833 0 1 0 54.921665 0 27.460833 27.460833 0 1 0-54.921665 0Z" fill="" p-id="3238"></path><path d="M522.478476 451.658433m-27.460833 0a27.460833 27.460833 0 1 0 54.921665 0 27.460833 27.460833 0 1 0-54.921665 0Z" fill="" p-id="3239"></path></svg>