<?xml version="1.0" standalone="no"?><!DOCTYPE svg PUBLIC "-//W3C//DTD SVG 1.1//EN" "http://www.w3.org/Graphics/SVG/1.1/DTD/svg11.dtd"><svg t="1543569527285" class="icon" style="" viewBox="0 0 1024 1024" version="1.1" xmlns="http://www.w3.org/2000/svg" p-id="8811" xmlns:xlink="http://www.w3.org/1999/xlink" width="16" height="16"><defs><style type="text/css"></style></defs><path d="M397.459421 837.555399H190.057869c-9.394495 0-16.62103-7.949188-16.621031-16.621031V158.983769c0-9.394495 7.949188-16.62103 16.621031-16.621031h581.736062c9.394495 0 16.62103 7.949188 16.62103 16.621031v278.944248c0 13.730416 11.562456 25.292872 25.292872 25.292872s25.292872-11.562456 25.292873-25.292872V158.983769c0-36.855328-30.351447-67.206775-67.206775-67.206775H190.057869c-36.855328 0-67.206775 30.351447-67.206775 67.206775v661.950599c0 36.855328 30.351447 67.206775 67.206775 67.206775H397.459421c13.730416 0 25.292872-11.562456 25.292873-25.292872s-11.562456-25.292872-25.292873-25.292872z" fill="" p-id="8812"></path><path d="M880.191955 529.705011c-33.242061-33.242061-87.441073-33.242061-120.683134 0l-247.870148 247.870148c-3.613267 3.613267-5.781228 7.226535-6.503881 12.285109l-24.570219 107.675371c-2.16796 8.671842 0.722653 17.343684 6.503881 23.124911 5.058574 5.058574 11.562456 7.949188 18.066338 7.949189 1.445307 0 3.613267 0 5.058574-0.722654l109.843331-22.402258c5.058574-0.722653 9.394495-3.613267 13.007763-7.226535L880.191955 650.388144c15.898377-15.898377 25.292872-37.577982 25.292872-60.702893s-9.394495-44.081863-25.292872-59.98024z m-35.410021 85.273112l-242.088921 242.08892-64.31616 13.007763 14.453069-62.1482L794.918843 565.115032c13.730416-13.730416 36.132675-13.730416 49.140437 0 6.503881 6.503881 10.117149 15.175723 10.117149 24.570219s-2.890614 18.788991-9.394495 25.292872z" fill="" p-id="8813"></path><path d="M698.805928 208.124206H255.096683c-13.730416 0-25.292872 11.562456-25.292872 25.292872s11.562456 25.292872 25.292872 25.292873h444.431899c13.730416 0 25.292872-11.562456 25.292872-25.292873s-11.562456-25.292872-26.015526-25.292872z" fill="" p-id="8814"></path><path d="M724.0988 356.268172c0-13.730416-11.562456-25.292872-25.292872-25.292872H255.096683c-13.730416 0-25.292872 11.562456-25.292872 25.292872s11.562456 25.292872 25.292872 25.292872h444.431899c13.730416 0 24.570219-11.562456 24.570218-25.292872z" fill="" p-id="8815"></path><path d="M257.987297 485.623147m-27.460833 0a27.460833 27.460833 0 1 0 54.921666 0 27.460833 27.460833 0 1 0-54.921666 0Z" fill="" p-id="8816"></path><path d="M354.100212 485.623147m-27.460833 0a27.460833 27.460833 0 1 0 54.921665 0 27.460833 27.460833 0 1 0-54.921665 0Z" fill="" p-id="8817"></path><path d="M450.213126 485.623147m-27.460832 0a27.460833 27.460833 0 1 0 54.921665 0 27.460833 27.460833 0 1 0-54.921665 0Z" fill="" p-id="8818"></path></svg>